<?xml version="1.0" encoding="UTF-8" standalone="no"?>
<svg width="84px" height="45px" viewBox="0 0 84 45" version="1.1" xmlns="http://www.w3.org/2000/svg" xmlns:xlink="http://www.w3.org/1999/xlink">
    <!-- Generator: Sketch 3.6.1 (26313) - http://www.bohemiancoding.com/sketch -->
    <title>Aljazeera Balkans Mobile Logo</title>
    <desc>Created with Sketch.</desc>
    <defs></defs>
    <g id="Deliverables" stroke="none" stroke-width="1" fill="none" fill-rule="evenodd">
        <g id="Group">
            <path d="M8.54077085,12.3211477 C7.80460891,12.3443295 7.22386397,12.9696705 7.24857652,13.727625 C7.26705425,14.4753523 7.88226073,15.0622841 8.6203498,15.0435341 C9.35843887,15.0234205 9.93702996,14.3909205 9.91345101,13.6421705 C9.89293279,12.9062614 9.3011919,12.3211477 8.58486802,12.3211477 L8.54077085,12.3211477 Z M13.609451,0.335920455 C12.9269085,0.822965909 12.3572729,1.92796591 12.3612405,3.61557955 C12.3670219,4.65307955 12.6516696,5.89467045 13.4374834,7.28501136 C12.3826656,8.748875 12.1890462,10.0983068 12.6368194,11.3880795 C12.9769004,12.3685341 13.1497749,12.6231932 13.3049652,13.2111477 C13.6937911,14.703875 13.2625684,16.4950114 12.1062931,19.2566023 C11.1685765,21.5079659 9.9494996,23.8622841 9.9494996,26.7296705 C9.95550769,27.3875114 10.0095806,28.0271705 10.100949,28.6556932 C10.2096615,28.5470568 10.4417101,28.3256932 10.7255644,28.0610341 C10.5860178,25.8148977 11.4652405,23.555125 12.5456777,21.5259205 C14.1173053,18.5612614 14.310698,15.5455795 14.008366,13.8950114 C15.1114753,15.0946705 16.9717182,16.8881932 18.0580502,18.7275114 C18.4243174,19.3471705 18.6444632,19.9331932 18.6983093,20.5296705 C18.7495482,21.9836477 18.3005279,23.0254659 17.4234591,24.0484205 C16.6816291,24.9105795 16.9383903,25.672625 16.9695644,25.8219432 C17.0257911,26.0673977 17.3291433,27.0070568 17.5413538,27.6222841 C18.3644632,25.9842159 20.6351838,25.0614886 21.6647223,23.7000114 C21.9005117,25.3769432 20.6598964,26.9720568 19.7394105,28.0412614 C19.5194915,28.2825114 19.2797344,28.5295568 19.0078964,28.7964886 C17.2643012,30.4905795 16.1201555,31.6554659 15.5140178,32.7373977 C15.3588275,32.9772841 15.1075077,33.5154659 14.9816777,33.9300114 C14.8039287,34.4481932 14.5769814,35.3277386 14.3871028,36.8766023 C14.2429085,37.7904659 14.0801231,38.8814886 14.0269571,39.3677386 C13.9090623,40.4744432 13.5807709,42.2309205 12.2451595,42.7311477 C12.1715887,42.7619432 12.1007385,42.7792159 12.0261474,42.7944432 L12.0261474,42.8008068 C10.7520907,43.0833068 9.44765344,41.9985341 8.49905425,40.0478523 C8.30350769,40.198875 8.09039028,40.3331932 7.85856842,40.437625 C9.14316761,43.5242159 11.0760745,44.9427386 12.7693377,44.9427386 C14.0523498,44.9427386 15.0660178,44.2853523 15.3903417,42.3679659 C15.5590219,41.4011477 15.6771433,40.330125 15.7831352,39.2902386 C15.835281,38.7902386 16.0777587,35.9641023 16.5257587,34.9391023 C17.0777101,33.7898977 18.2877182,32.677625 20.0902607,30.7904659 C21.2030057,29.6180795 21.8100502,28.6421705 22.1262121,27.8562614 C23.1752486,25.9031932 21.8757992,21.2585341 21.6234591,20.4236477 C21.6157506,20.3937614 21.6126899,20.3869432 21.5960259,20.3869432 C21.5702931,20.3869432 21.5624713,20.3937614 21.5428599,20.4278523 C21.5410462,20.4358068 21.5370785,20.4416023 21.5331109,20.4475114 C21.0692405,21.2162614 20.2405765,21.9173977 19.4702931,22.4906932 C19.9036696,21.2811477 19.7866818,20.3617159 19.6138073,19.5881932 L19.6138073,19.5823977 C19.6029247,19.5379659 19.5921555,19.4920568 19.5804794,19.4479659 L19.5784389,19.4527386 C18.7986332,16.3711477 15.6975482,13.6273977 14.3000421,12.0459205 C12.4827628,9.99705682 13.1015968,8.67717045 13.7713296,7.83853409 C13.8971595,8.026375 14.0269571,8.22626136 14.1742121,8.42705682 C16.6455806,11.8330795 21.3003822,17.2377386 23.7402364,22.3864886 C24.3599773,23.6859205 24.8342769,24.9643295 25.0947789,26.1825114 C26.0559611,31.5146705 22.3944227,36.9368295 16.9048356,35.4122841 L16.9027951,35.4122841 C16.8673134,35.403875 16.8291109,35.3930795 16.79703,35.3819432 C16.6483012,35.8560341 16.5078478,36.6121705 16.3694348,37.645125 C17.2013862,38.003875 18.1030543,38.220125 18.9783093,38.2586477 L18.9792162,38.2603523 C19.0430381,38.2612614 19.1081069,38.2630795 19.171702,38.2654659 C23.682196,38.3154659 27.2122364,34.8828523 26.5629085,27.6789886 C26.5629085,27.6789886 26.2919773,24.6821705 24.7667142,21.5259205 C22.3265198,15.9814886 17.8120583,10.4954659 15.041532,6.95194318 C14.1623093,5.825125 13.6458397,4.85148864 13.3855644,4.00978409 C12.8667142,2.37171591 13.1968194,1.10239773 13.8620178,0.546829545 C14.0053053,0.424102273 14.1841879,0.286829545 14.3470866,0.204670455 C14.4462769,0.151602273 14.4080745,0.0333068182 14.3372243,0.0203522727 C14.3226008,0.0203522727 14.3000421,0.016375 14.2762364,0.016375 C14.1802202,0.016375 13.9905684,0.0603522727 13.609451,0.335920455 L13.609451,0.335920455 Z M10.2707628,9.985125 C9.53618785,10.0050114 8.95771012,10.6337614 8.97822834,11.3820568 C9.00180729,12.1337614 9.61372632,12.7283068 10.3494348,12.7043295 C10.7520907,12.6927386 11.0996534,12.4969432 11.3394105,12.2117159 L11.3670704,12.1779659 C11.5241879,13.2608068 11.0153134,14.1259205 9.83069798,15.1271705 C8.61898947,16.1666023 5.78396113,17.5222841 3.76852794,19.1472841 C0.93179919,21.4318295 0.261839676,23.9187614 0.0891919028,25.9321705 C0.0152809717,26.8308068 0.143944939,28.0120568 0.384835628,28.988875 C0.686260729,30.2180795 1.12315142,31.1587614 1.12315142,31.1587614 C1.12315142,31.1587614 1.14593684,31.1979659 1.18039838,31.2652386 C1.10841457,32.5977386 1.24036599,34.925125 1.97788826,36.6831932 C2.96922429,38.9505795 4.75068178,40.8070568 7.30639028,40.2612614 C9.88590445,39.6437614 10.1742931,35.3737614 10.4683498,32.2561477 C10.5449814,31.7453523 10.6222931,31.6547841 10.775783,31.5237614 C11.1903417,31.1656932 12.1960745,30.2039886 12.6752486,29.7761477 C12.9717992,29.5098977 13.2292405,29.2444432 13.3963336,28.9045568 C13.609451,28.4919432 13.4966575,27.9419432 13.4966575,27.9419432 L13.2075887,25.8875114 C13.1360583,26.1796705 12.7854348,26.5884205 12.292204,27.0933068 C11.7785684,27.6222841 10.4091757,28.8181932 10.2844794,28.9496705 C10.1608032,29.0771705 9.71484372,29.4064886 9.52428502,30.9746705 C9.02924049,35.2394432 8.20431741,37.2523977 6.72303806,37.9328523 C6.33217166,38.1203523 5.89392065,38.2077386 5.40681134,38.220125 C2.69194494,38.1933068 1.97788826,34.826375 1.99047126,32.9810341 C1.9926251,32.872625 1.99443887,32.7610341 2.00044696,32.6598977 C2.63118381,33.5243295 3.56209879,34.3819432 4.71134575,34.2035341 C6.54415547,33.9189886 5.97361296,30.7717159 5.70732955,30.0417159 C5.44818785,29.3073977 4.73696518,27.116375 3.20047935,27.2250114 C2.11165344,27.3002386 1.60447935,28.5991023 1.37356437,29.6991023 C1.16362105,28.8298977 1.05162105,27.8106932 1.11963725,27.0145568 C1.28151579,25.1105795 1.92200162,22.7321705 4.64468988,20.3897841 C6.58439838,18.722625 8.78188826,17.5318295 10.0037992,16.5493295 C10.781451,15.9273977 11.2648194,15.2291023 11.5359773,14.5737614 C11.4593457,15.2087614 11.3051757,15.8973977 11.0057911,16.6996705 C9.87796923,19.7223977 6.45392065,24.7130795 6.40789636,31.7661477 C6.40789636,33.9339886 6.60797733,35.8086477 6.9469247,37.4116023 C7.13260891,37.2825114 7.30639028,37.1134205 7.47155628,36.9106932 C7.23372632,35.7637614 7.0963336,34.4942159 7.0963336,33.1405795 C7.0963336,26.1033068 10.4966899,21.1191023 11.6056939,18.1030795 C12.1862121,16.5143295 12.200949,15.3561477 12.200949,14.2129659 C12.200949,12.8100114 11.8934024,11.3456932 11.6066008,10.7747841 C11.2963336,10.2275114 10.9114753,9.985125 10.3357182,9.985125 L10.2707628,9.985125 Z M2.21277085,31.3983068 C2.42282753,30.7220568 2.80190445,30.1150114 3.46188826,29.7348977 C4.54459271,29.2194432 4.96878704,30.5377386 4.96878704,30.5377386 C4.89328907,31.4303523 4.22718381,31.8987614 3.48569393,31.8987614 C3.05141053,31.8987614 2.58799352,31.7334205 2.21277085,31.3983068 L2.21277085,31.3983068 Z M16.5078478,20.3145568 C16.3783903,20.4548977 15.7683984,21.1359205 15.1819854,21.7903523 C14.6575806,22.3731932 14.1572081,22.9300114 14.0474753,23.052625 C13.7970623,23.3361477 13.6653377,23.6146705 13.6986656,23.765125 L13.8498883,24.5264886 C13.8904713,24.3848977 14.050536,24.1266023 14.2270381,23.9264886 C14.352868,23.7861477 14.9627466,23.1018295 15.5513134,22.4535341 C16.0728842,21.8694432 16.5738235,21.3155795 16.6849166,21.1861477 C16.9372567,20.9103523 17.0679611,20.6281932 17.0334996,20.4809205 L16.8783093,19.713875 C16.8419206,19.8586477 16.6849166,20.1141023 16.5078478,20.3145568 L16.5078478,20.3145568 Z M5.95887611,21.4512614 C5.95887611,21.4512614 4.88818785,22.225125 4.45696518,23.250125 C4.19272227,23.8771705 4.21040648,24.5556932 4.35958866,24.8837614 C4.51194494,25.2111477 4.86857652,25.5243295 5.33312713,25.1473977 C5.65835789,24.8837614 5.80073846,24.5145568 5.87136194,24.1987614 C5.91466559,24.0114886 5.92928907,23.8933068 5.92928907,23.801375 C5.92928907,23.6859205 5.8917668,23.5887614 5.78396113,23.6146705 C5.47437409,23.7191023 5.65835789,24.1436477 5.43730526,24.3492159 C5.26930526,24.4533068 4.83298138,24.3970568 4.74694089,23.9592159 C4.66214737,23.5205795 4.99327287,22.9568295 5.29356437,22.5836477 C5.59453603,22.2093295 6.12358866,21.7193295 6.12358866,21.7193295 C6.12358866,21.7193295 6.50107854,21.4014886 6.37309474,21.2443295 C6.36731336,21.2352386 6.35359676,21.2312614 6.33817976,21.2312614 C6.22799352,21.2312614 5.95887611,21.4512614 5.95887611,21.4512614 L5.95887611,21.4512614 Z M14.2468761,29.6381932 L15.9636049,30.4625114 L16.9127709,28.4078523 L15.1976291,27.5831932 L14.2468761,29.6381932 Z M10.9878802,31.8420568 C11.7147466,33.5705795 12.8147951,35.070125 14.0788761,36.1734205 C14.2104874,35.2681932 14.352868,34.6303523 14.4866332,34.1754659 C13.1968194,33.2358068 12.2727061,32.2198977 11.6805117,31.2042159 L10.9878802,31.8420568 Z M19.8752162,33.2837614 L21.5910381,34.1154659 L22.5390704,32.0585341 L20.8257425,31.233875 L19.8752162,33.2837614 Z M10.5410138,37.5917159 L11.9993943,38.8212614 L13.4256939,37.0802386 L11.9623255,35.8417159 L10.5410138,37.5917159 Z M10.2138559,40.6477386 L11.6755239,41.8778523 L13.0967223,40.1297841 L11.6361879,38.8964886 L10.2138559,40.6477386 Z M17.0931271,39.3564886 C17.0257911,39.3873977 17.0028923,39.5005795 17.0463093,39.6598977 C17.0931271,39.8114886 17.3477344,40.4744432 17.3477344,40.4744432 C17.5276372,40.9733068 17.8321231,41.5505795 18.2416939,41.8469432 C18.678698,42.1605795 18.9046251,42.0503523 18.9929328,42.0164886 C19.0577749,41.980125 19.3386818,41.8054659 19.2384713,41.3517159 C19.1313457,40.8708068 19.0726251,40.7411477 18.9849976,40.5658068 C18.8997506,40.390125 18.783783,40.281375 18.7150866,40.3110341 C18.6738235,40.3181932 18.7080583,40.476375 18.7080583,40.5755795 C18.7043174,40.7504659 18.6444632,40.8822841 18.5000421,40.9464886 C18.372285,41.0022841 18.0580502,41.1167159 17.8164794,40.6809205 C17.6179854,40.330125 17.4430704,39.8668295 17.369613,39.6778523 C17.309532,39.5295568 17.2200907,39.3504659 17.1266818,39.3504659 C17.1168194,39.3504659 17.1092243,39.3535341 17.0931271,39.3564886 L17.0931271,39.3564886 Z" id="Fill-1" fill="#DBA200"></path>
            <path d="M58.0695514,22.1937045 L58.0695514,20.4637045 L53.4061344,20.4637045 L53.4061344,21.9492727 L55.8038186,21.9492727 L53.333017,25.5095 L53.333017,27.2431364 L58.121017,27.2431364 L58.121017,25.7460909 L55.6055514,25.7460909 L58.0695514,22.1937045 Z M74.491268,23.0147273 C74.3924178,23.1360909 74.250604,23.1917727 73.9190251,23.2235909 L73.252353,23.2235909 L73.252353,21.9492727 L73.7695028,21.9492727 C73.8104259,21.9492727 73.8511223,21.9584773 73.8932923,21.9584773 C74.1587822,21.9667727 74.2671547,21.9992727 74.3848227,22.0726818 C74.6774057,22.2416591 74.7430413,22.7039318 74.491268,23.0147273 L74.491268,23.0147273 Z M75.9450008,24.7858636 C75.690847,24.1845 75.5997053,24.0624545 75.3567741,23.9487045 C75.3974704,23.9388182 75.4381668,23.9197273 75.4744421,23.9009773 C76.2291951,23.5516591 76.594102,22.6768864 76.3061668,21.7058636 C76.0723045,20.9062045 75.4561911,20.4637045 74.2898267,20.4637045 L71.5513814,20.4637045 L71.5513814,27.2431364 L73.2878348,27.2431364 L73.2878348,24.7088182 L73.6860696,24.7088182 C73.9664097,24.7088182 74.1358834,24.8315455 74.2822316,25.1917727 L74.3745069,25.4065455 L74.4248389,25.5289318 L75.0806283,27.2431364 L76.882264,27.2431364 L76.0377296,25.0216591 C76.006102,24.9355227 75.9819563,24.8627955 75.9450008,24.7858636 L75.9450008,24.7858636 Z M79.9969522,24.4549545 L80.6363045,22.3045 L81.2773571,24.4549545 L79.9969522,24.4549545 Z M81.5978267,20.4637045 L79.6802235,20.4637045 L77.3730008,27.2431364 L79.1162559,27.2431364 L79.5046283,26.0009773 L81.7295514,26.0009773 L82.1073814,27.2431364 L83.9516405,27.2431364 L81.5978267,20.4637045 Z M48.2676243,24.4549545 L48.904596,22.3045 L49.5462154,24.4549545 L48.2676243,24.4549545 Z M47.9494219,20.4637045 L45.6458267,27.2431364 L47.3838672,27.2431364 L47.7760939,26.0009773 L49.9986364,26.0009773 L50.3771466,27.2431364 L52.2232194,27.2431364 L49.8698591,20.4637045 L47.9494219,20.4637045 Z M32.398766,24.4549545 L33.0397053,22.3045 L33.6805312,24.4549545 L32.398766,24.4549545 Z M32.0833976,20.4637045 L29.7808227,27.2431364 L31.5180696,27.2431364 L31.9093895,26.0009773 L34.1329522,26.0009773 L34.5099887,27.2431364 L36.3543611,27.2431364 L34.0037215,20.4637045 L32.0833976,20.4637045 Z M67.3085312,24.6289318 L69.5705231,24.6289318 L69.5705231,23.1799545 L67.3085312,23.1799545 L67.3085312,21.9492727 L69.9376972,21.9492727 L69.9376972,20.4637045 L65.5779725,20.4637045 L65.5779725,27.2431364 L70.1700858,27.2431364 L70.1700858,25.8026818 L67.3085312,25.8026818 L67.3085312,24.6289318 Z M61.3232194,24.6289318 L63.5890656,24.6289318 L63.5890656,23.1799545 L61.3232194,23.1799545 L61.3232194,21.9492727 L63.9539725,21.9492727 L63.9539725,20.4637045 L59.5958348,20.4637045 L59.5958348,27.2431364 L64.1846607,27.2431364 L64.1846607,25.8026818 L61.3232194,25.8026818 L61.3232194,24.6289318 Z M42.8809684,26.8131364 C42.8809684,27.8487045 42.5054057,28.2259773 41.6744745,27.9884773 C41.6248227,27.9785909 41.5841263,27.9629091 41.5358348,27.9414318 L41.1256972,29.4135909 C41.2181992,29.4596136 41.3102478,29.4964318 41.4092113,29.5358636 C43.3452923,30.2596136 44.6166283,29.1849545 44.6166283,27.3006364 L44.6166283,20.4637045 L42.8809684,20.4637045 L42.8809684,26.8131364 Z M41.3366607,25.7289318 L39.2066202,25.7289318 L39.2066202,20.4637045 L37.4609846,20.4637045 L37.4609846,27.2431364 L41.3366607,27.2431364 L41.3366607,25.7289318 Z" id="Fill-3" fill="#FFFFFF"></path>
            <path d="M32.8802866,36.9716023 C33.026068,36.9716023 33.1656146,36.9572841 33.2986996,36.9287614 C33.431898,36.900125 33.5491126,36.8523977 33.6506834,36.7856932 C33.7519142,36.7189886 33.8327401,36.6283068 33.8932745,36.5139886 C33.9533555,36.3995568 33.9835093,36.2534205 33.9835093,36.0753523 C33.9835093,35.7259205 33.8851126,35.476375 33.6886591,35.3269432 C33.4919789,35.1777386 33.2321571,35.1029659 32.9087401,35.1029659 L31.2823595,35.1029659 L31.2823595,36.9716023 L32.8802866,36.9716023 Z M32.7945862,34.0827386 C33.060983,34.0827386 33.2796551,34.0193295 33.4509425,33.8920568 C33.6221166,33.7650114 33.7077036,33.5584205 33.7077036,33.2723977 C33.7077036,33.1135341 33.6791368,32.9831932 33.6221166,32.8814886 C33.564983,32.7798977 33.4889182,32.7003523 33.3938089,32.6431932 C33.2986996,32.5859205 33.1894202,32.5462614 33.0657441,32.5239886 C32.942068,32.5018295 32.8136308,32.4905795 32.6805457,32.4905795 L31.2823595,32.4905795 L31.2823595,34.0827386 L32.7945862,34.0827386 Z M32.9849182,31.3273977 C33.3082219,31.3273977 33.6030721,31.3560341 33.8694688,31.4131932 C34.1356389,31.4704659 34.3639466,31.5643295 34.5542785,31.6945568 C34.7443838,31.8247841 34.8917522,31.9980795 34.9963838,32.2141023 C35.1011287,32.4302386 35.1533879,32.6971705 35.1533879,33.0150114 C35.1533879,33.3581932 35.0756227,33.6442159 34.920319,33.8729659 C34.764902,34.1018295 34.535234,34.2893295 34.2307482,34.4355795 C34.6492745,34.556375 34.9614688,34.7677386 35.1676713,35.0695568 C35.373647,35.3714886 35.4766915,35.7354659 35.4766915,36.1612614 C35.4766915,36.5044432 35.410149,36.8016023 35.277064,37.052625 C35.1438656,37.3037614 34.9646429,37.5087614 34.7396227,37.667625 C34.5144891,37.8264886 34.2576146,37.9441023 33.9692259,38.0203523 C33.6807239,38.0966023 33.3842866,38.1347841 33.0800275,38.1347841 L29.7891773,38.1347841 L29.7891773,31.3273977 L32.9849182,31.3273977 Z" id="Fill-5" fill="#FFFFFF"></path>
            <path d="M39.9563401,35.503375 L39.1003563,33.0054205 L39.0813117,33.0054205 L38.1968745,35.503375 L39.9563401,35.503375 Z M39.870753,31.3273523 L42.4101377,38.1347386 L40.8599352,38.1347386 L40.3461862,36.6188295 L37.8068016,36.6188295 L37.2742348,38.1347386 L35.7715304,38.1347386 L38.3393684,31.3273523 L39.870753,31.3273523 Z" id="Fill-7" fill="#FFFFFF"></path>
            <path d="M44.4930769,31.3274091 L44.4930769,36.8762727 L47.8028583,36.8762727 L47.8028583,38.1347955 L42.9997814,38.1347955 L42.9997814,31.3274091 L44.4930769,31.3274091 Z" id="Fill-9" fill="#FFFFFF"></path>
            <path d="M50.1328551,31.3274091 L50.1328551,34.1494545 L52.7863935,31.3274091 L54.650604,31.3274091 L51.9969522,34.0160455 L54.9073652,38.1347955 L53.0337457,38.1347955 L50.9888389,35.0743409 L50.1328551,35.9419545 L50.1328551,38.1347955 L48.6396729,38.1347955 L48.6396729,31.3274091 L50.1328551,31.3274091 Z" id="Fill-11" fill="#FFFFFF"></path>
            <path d="M58.977953,35.503375 L58.1219692,33.0054205 L58.1029247,33.0054205 L57.2184874,35.503375 L58.977953,35.503375 Z M58.892366,31.3273523 L61.4317506,38.1347386 L59.8815482,38.1347386 L59.3677992,36.6188295 L56.8284146,36.6188295 L56.2958478,38.1347386 L54.7931433,38.1347386 L57.3609814,31.3273523 L58.892366,31.3273523 Z" id="Fill-13" fill="#FFFFFF"></path>
            <path d="M63.5050543,31.3274091 L66.3394024,35.8942273 L66.3583336,35.8942273 L66.3583336,31.3274091 L67.7565198,31.3274091 L67.7565198,38.1347955 L66.2632243,38.1347955 L63.4385117,33.5775227 L63.4194672,33.5775227 L63.4194672,38.1347955 L62.0213943,38.1347955 L62.0213943,31.3274091 L63.5050543,31.3274091 Z" id="Fill-15" fill="#FFFFFF"></path>
            <path d="M70.2102494,36.4567386 C70.2926623,36.6157159 70.4019417,36.7444659 70.5384275,36.842875 C70.6746866,36.9415114 70.8347514,37.0144659 71.0187352,37.0621932 C71.2024923,37.1099205 71.3927109,37.1336705 71.5892777,37.1336705 C71.7224761,37.1336705 71.8651968,37.1226477 72.0173263,37.100375 C72.1694559,37.0781023 72.3121765,37.0351477 72.4453749,36.971625 C72.5784599,36.9081023 72.6893263,36.8207159 72.7782008,36.7094659 C72.8669619,36.5983295 72.9112858,36.4567386 72.9112858,36.2851477 C72.9112858,36.1008295 72.8526785,35.9515114 72.7353506,35.8370795 C72.6179093,35.7226477 72.4643061,35.6273068 72.2740874,35.5510568 C72.0838688,35.4746932 71.8682575,35.4079886 71.6273668,35.3508295 C71.3863628,35.2935568 71.142298,35.2301477 70.8950591,35.1601477 C70.6413587,35.096625 70.3940065,35.0187841 70.1531158,34.9265114 C69.9121117,34.8344659 69.6967271,34.7152614 69.5063951,34.5690114 C69.3161765,34.422875 69.1624599,34.2401477 69.0452453,34.0208295 C68.927804,33.8015114 68.8691968,33.5361705 68.8691968,33.2246932 C68.8691968,32.8751477 68.9436745,32.571625 69.0927433,32.314125 C69.2415854,32.0567386 69.4365652,31.8423068 69.6776826,31.6706023 C69.9185733,31.4990114 70.1912049,31.3719659 70.4955773,31.2892386 C70.7999498,31.2067386 71.1043223,31.165375 71.4085814,31.165375 C71.7636259,31.165375 72.104387,31.2051477 72.4310915,31.2844659 C72.7575692,31.364125 73.0475449,31.4927614 73.3013587,31.6706023 C73.5548324,31.8486705 73.7561603,32.0758295 73.9052291,32.3523068 C74.0540713,32.6287841 74.1286623,32.964125 74.1286623,33.3582159 L72.6829781,33.3582159 C72.6702818,33.1548068 72.6274316,32.9862841 72.5547676,32.852875 C72.4817636,32.7193523 72.3850672,32.6144659 72.2645652,32.5382159 C72.1441765,32.4619659 72.006217,32.4081023 71.8509134,32.3761705 C71.6954964,32.3444659 71.525796,32.3284432 71.3420389,32.3284432 C71.2215368,32.3284432 71.1009215,32.3412841 70.9806462,32.366625 C70.8600308,32.3920795 70.7507514,32.436625 70.652468,32.5001477 C70.5540713,32.5637841 70.4732453,32.6431023 70.4099903,32.7384432 C70.3465085,32.8337841 70.314881,32.9545795 70.314881,33.1007159 C70.314881,33.2342386 70.3401603,33.3424205 70.3909457,33.4249205 C70.4416178,33.5075341 70.5414883,33.5838977 70.6905571,33.6536705 C70.8395126,33.7237841 71.0456016,33.7935568 71.3087109,33.8634432 C71.5718202,33.9334432 71.9158688,34.0224205 72.3407433,34.1304886 C72.4674802,34.1559432 72.6434154,34.2019659 72.868549,34.2686705 C73.0935692,34.3354886 73.3170024,34.4419659 73.5390753,34.5881023 C73.7609215,34.7343523 73.9528405,34.9298068 74.1143789,35.1744659 C74.2761441,35.4192386 74.35697,35.7321932 74.35697,36.1135568 C74.35697,36.4250341 74.2966623,36.7142386 74.1762737,36.9811705 C74.0557717,37.2481023 73.8767757,37.4785568 73.6389457,37.6723068 C73.4011158,37.8662841 73.1063789,38.0171932 72.7543951,38.1252614 C72.4025247,38.2332159 71.9949943,38.2873068 71.5322575,38.2873068 C71.1580551,38.2873068 70.7951887,38.2411705 70.4433182,38.149125 C70.0913344,38.0570795 69.7806138,37.9124205 69.5111563,37.7152614 C69.2415854,37.5183295 69.0275611,37.2671932 68.8691968,36.9620795 C68.7106057,36.6569659 68.6345409,36.2946932 68.6408891,35.8751477 L70.0865733,35.8751477 C70.0865733,36.1040114 70.1277231,36.2979886 70.2102494,36.4567386" id="Fill-17" fill="#FFFFFF"></path>
        </g>
    </g>
</svg>